<?xml version="1.0" encoding="UTF-8"?>
<svg version="1.1" xmlns="http://www.w3.org/2000/svg" width="414" height="896">
<path d="M0 0 C136.62 0 273.24 0 414 0 C414 295.68 414 591.36 414 896 C277.38 896 140.76 896 0 896 C0 600.32 0 304.64 0 0 Z " fill="#25A55F" transform="translate(0,0)"/>
<path d="M0 0 C0.82818416 -0.00679667 1.65636833 -0.01359334 2.50964898 -0.02059597 C5.25918308 -0.03944626 8.00826709 -0.03713909 10.75785828 -0.03465271 C12.73969591 -0.04363781 14.72152831 -0.05384778 16.70335388 -0.06518555 C22.06918629 -0.09161209 27.43487503 -0.09871588 32.80076623 -0.10063291 C36.1576506 -0.10276958 39.51449877 -0.10918229 42.87137413 -0.11712456 C54.59511497 -0.14485298 66.3187537 -0.15713312 78.04252625 -0.1547699 C88.9506802 -0.15296793 99.85838889 -0.18462373 110.7664302 -0.23200089 C120.14933299 -0.2712938 129.53209062 -0.28731883 138.915075 -0.28540367 C144.51132552 -0.28464071 150.10718 -0.29308373 155.70334816 -0.32493782 C160.96902965 -0.35409457 166.23393952 -0.35414236 171.49964905 -0.33238792 C173.42485882 -0.32926445 175.35011761 -0.33625542 177.27524376 -0.3544693 C189.99217746 -0.46693139 200.40649138 0.42254559 210.04179382 9.77613831 C211.15554382 11.07551331 211.15554382 11.07551331 212.29179382 12.40113831 C210.78246126 16.1914285 208.60977864 17.98791819 205.41679382 20.46363831 C200.42986563 24.42151783 195.72775581 28.58694036 191.0891571 32.94630432 C187.39024166 36.40113831 187.39024166 36.40113831 186.29179382 36.40113831 C186.29179382 34.75113831 186.29179382 33.10113831 186.29179382 31.40113831 C124.25179382 31.40113831 62.21179382 31.40113831 -1.70820618 31.40113831 C-1.70820618 93.44113831 -1.70820618 155.48113831 -1.70820618 219.40113831 C60.33179382 219.40113831 122.37179382 219.40113831 186.29179382 219.40113831 C186.29179382 190.36113831 186.29179382 161.32113831 186.29179382 131.40113831 C194.06551645 123.62741568 194.06551645 123.62741568 198.47929382 120.15113831 C203.34569119 116.24317149 207.94986761 112.12618178 212.49565125 107.85523987 C216.19267727 104.40113831 216.19267727 104.40113831 217.29179382 104.40113831 C217.43235972 120.23099816 217.53795738 136.06068773 217.60266685 151.89101791 C217.63352001 159.24242345 217.67553488 166.59343975 217.74443054 173.94459534 C217.80449674 180.35674069 217.84300497 186.76860397 217.85632479 193.18102288 C217.86410318 196.57213052 217.88219996 199.96243167 217.92617416 203.35327911 C217.96999981 207.15193672 217.97571652 210.94894655 217.97294617 214.74781799 C217.99451782 215.85481552 218.01608948 216.96181305 218.03831482 218.10235596 C217.96788702 227.08035263 215.33303137 234.84940218 209.2964077 241.64858627 C207.35047395 243.52538123 205.59581821 244.97182431 203.29179382 246.40113831 C202.79038848 246.73222343 202.28898314 247.06330856 201.77238369 247.40442657 C193.47800597 251.99194871 183.97658835 250.96081497 174.79399109 250.91871643 C172.80890897 250.9241417 170.82383089 250.93126662 168.83876038 250.93995667 C163.46472534 250.95814592 158.0909985 250.95114026 152.71695828 250.93844032 C147.08287322 250.92828848 141.44881392 250.9377122 135.81472778 250.94398499 C126.35350322 250.95125562 116.89240369 250.94168959 107.43119812 250.92262268 C96.5071833 250.90086143 85.58346722 250.90790235 74.65945965 250.9299283 C65.26639239 250.94810641 55.87341483 250.95062863 46.48033565 250.94017363 C40.87643379 250.93395117 35.27267212 250.93306862 29.66877937 250.94631958 C24.39828579 250.95791228 19.1281756 250.94978979 13.85772324 250.92674255 C11.92846626 250.92147346 9.99917678 250.92293825 8.06993294 250.93179321 C-5.42984312 250.98802134 -15.55986926 250.27826105 -25.79804993 240.54566956 C-32.10959858 233.45969776 -34.01671015 224.4885556 -33.96890259 215.18572998 C-33.97272813 214.3864284 -33.97655368 213.58712682 -33.98049515 212.76360399 C-33.99076849 210.09998951 -33.98684381 207.43659289 -33.98286438 204.77296448 C-33.98721404 202.8571452 -33.99239803 200.94132766 -33.99835205 199.0255127 C-34.01172714 193.8311869 -34.01232228 188.63693394 -34.00978875 183.44259429 C-34.00871786 179.10131125 -34.01360553 174.76004288 -34.01839417 170.41876298 C-34.02948458 160.17321219 -34.02992962 149.92769806 -34.02388 139.68214417 C-34.01784216 129.1251731 -34.03014753 118.56833537 -34.05145007 108.01138705 C-34.06908561 98.93684612 -34.07506428 89.86234755 -34.07181233 80.78779012 C-34.07000218 75.37278417 -34.07260879 69.9578733 -34.08652687 64.54288292 C-34.09913204 59.4481333 -34.09713563 54.35359093 -34.08411598 49.25884438 C-34.08175637 47.39408421 -34.08446272 45.52930933 -34.09273911 43.66456604 C-34.15203516 29.26056351 -33.38435989 18.57663899 -23.07929993 7.67848206 C-16.51679373 1.48140544 -8.78984187 -0.05405424 0 0 Z " fill="#FDFEFD" transform="translate(104.70820617675781,322.59886169433594)"/>
<path d="M0 0 C4.97985162 3.70296659 8.56134012 8.03676775 12.41796875 12.87890625 C15.73759344 16.9723668 19.37077242 20.779245 23.01416016 24.58398438 C25.51093015 27.226365 27.63284186 29.60257108 29 33 C16.91073462 44.3589123 16.91073462 44.3589123 10.5625 49.4375 C6.18748028 52.94643139 2.07979091 56.65844505 -2 60.5 C-6.91308115 65.1261859 -11.95121721 69.47270687 -17.22265625 73.69140625 C-20.4244267 76.3527935 -23.4623641 79.15460827 -26.5 82 C-30.37472764 85.62950608 -34.28899743 89.11747959 -38.4375 92.4375 C-42.81251972 95.94643139 -46.92020909 99.65844505 -51 103.5 C-55.90962356 108.12293021 -60.94478308 112.4660099 -66.2109375 116.68359375 C-70.63734163 120.35986497 -74.80801112 124.30426372 -79.015625 128.2265625 C-83.63353761 132.53105514 -88.40761607 136.64312405 -93.2109375 140.73828125 C-94.4115486 141.76291508 -95.61206677 142.78765779 -96.8125 143.8125 C-97.41433105 144.32546631 -98.01616211 144.83843262 -98.63623047 145.36694336 C-103.40085178 149.4445936 -108.0240869 153.64972099 -112.59765625 157.94140625 C-114.94709248 159.95466299 -117.30287889 161.49518911 -120 163 C-125.28884855 157.33549492 -130.52990552 151.67911246 -135.375 145.625 C-139.42601724 140.58663806 -143.77223557 135.8969524 -148.20043945 131.1940918 C-152.24254193 126.87790843 -155.99588108 122.39505501 -159.69140625 117.77734375 C-162.83237245 113.99861792 -166.18422472 110.43726736 -169.54345703 106.85327148 C-173.56503042 102.53707497 -177.30330218 98.06557567 -180.96484375 93.4375 C-183.01527633 90.86902339 -183.01527633 90.86902339 -185.81640625 88.4375 C-188 86 -188 86 -188.109375 83.9375 C-186.57971694 81.26598451 -184.69810417 79.86791763 -182.25 78 C-177.09833284 73.94457533 -172.2773204 69.65550751 -167.50488281 65.16210938 C-164.44184361 62.28895176 -161.31687602 59.57639263 -158 57 C-153.57248284 58.64021822 -150.90247656 62.0298623 -147.8125 65.4375 C-147.23371094 66.06785156 -146.65492188 66.69820313 -146.05859375 67.34765625 C-141.99730289 71.8060511 -138.1672482 76.41361118 -134.40234375 81.125 C-130.87835551 85.34232577 -127.11874891 89.32951504 -123.33984375 93.31835938 C-122.80617188 93.88361328 -122.2725 94.44886719 -121.72265625 95.03125 C-121.00734741 95.78245117 -121.00734741 95.78245117 -120.27758789 96.54882812 C-119 98 -119 98 -117 101 C-107.45748292 96.72459974 -99.56897104 87.84562185 -91.984375 80.7734375 C-87.36646239 76.46894486 -82.59238393 72.35687595 -77.7890625 68.26171875 C-71.24344569 62.67681067 -64.77960493 57.03446039 -58.43359375 51.22265625 C-53.962935 47.13950243 -49.38858111 43.18157621 -44.78125 39.25390625 C-38.23748858 33.67243614 -31.77691033 28.03199262 -25.43359375 22.22265625 C-18.97806562 16.3266763 -12.30512562 10.67724726 -5.65893555 4.99853516 C-2.76334395 2.571889 -2.76334395 2.571889 0 0 Z " fill="#FDFEFE" transform="translate(313,358)"/>
</svg>
