<?xml version="1.0" encoding="UTF-8"?>
<svg version="1.1" xmlns="http://www.w3.org/2000/svg" width="500" height="500">
<path d="M0 0 C165 0 330 0 500 0 C500 165 500 330 500 500 C335 500 170 500 0 500 C0 335 0 170 0 0 Z " fill="#14A47E" transform="translate(0,0)"/>
<path d="M0 0 C0.65622839 -0.00538554 1.31245677 -0.01077108 1.98857087 -0.01631981 C4.17406789 -0.03055735 6.3589556 -0.02350644 8.54447937 -0.01637268 C10.11695338 -0.02207859 11.68942324 -0.0290437 13.2618866 -0.03717041 C17.5244562 -0.05509559 21.78681987 -0.05393431 26.04941583 -0.04822803 C29.61284429 -0.04513432 33.1762333 -0.05123086 36.73965615 -0.05726677 C45.15037939 -0.07130915 53.56100105 -0.06975395 61.97172546 -0.05836487 C70.63549234 -0.04689203 79.29894936 -0.06094587 87.96267539 -0.08776134 C95.41172977 -0.10995017 102.86068712 -0.11654832 110.30977219 -0.11068493 C114.75396689 -0.10732077 119.19796313 -0.10969395 123.6421299 -0.12693596 C127.82424858 -0.14245317 132.00591023 -0.13839698 136.18801117 -0.11963081 C137.71777703 -0.11595766 139.2475771 -0.11901607 140.77731133 -0.1295166 C150.43192116 -0.19069783 159.02651214 0.07239909 166.28935242 7.13768005 C166.92872742 7.88018005 167.56810242 8.62268005 168.22685242 9.38768005 C166.59126858 13.76682387 163.29284675 16.39416132 159.91435242 19.45018005 C159.34523132 19.97934021 158.77611023 20.50850037 158.18974304 21.05369568 C155.0487058 23.92787098 151.99439249 26.34486752 148.22685242 28.38768005 C148.22685242 27.06768005 148.22685242 25.74768005 148.22685242 24.38768005 C99.38685242 24.38768005 50.54685242 24.38768005 0.22685242 24.38768005 C0.22685242 73.22768005 0.22685242 122.06768005 0.22685242 172.38768005 C49.06685242 172.38768005 97.90685242 172.38768005 148.22685242 172.38768005 C148.22685242 149.28768005 148.22685242 126.18768005 148.22685242 102.38768005 C152.84685242 98.42768005 157.46685242 94.46768005 162.22685242 90.38768005 C166.3418156 86.67367507 166.3418156 86.67367507 170.43388367 82.93455505 C172.22685242 81.38768005 172.22685242 81.38768005 173.22685242 81.38768005 C173.31974339 93.47098444 173.39071434 105.55420316 173.4341011 117.63779259 C173.45493001 123.24937474 173.48316186 128.86071166 173.52861023 134.47215271 C173.57223541 139.89272582 173.59602482 145.31306379 173.60636139 150.73379898 C173.61372287 152.79655785 173.62809789 154.85930461 173.64977264 156.92196274 C173.67902822 159.82275944 173.68279919 162.7225982 173.68095398 165.6235199 C173.69533508 166.46653656 173.70971619 167.30955322 173.72453308 168.17811584 C173.66540499 176.83095926 170.71013438 184.18784204 165.17997742 190.81736755 C157.2544053 197.18952753 149.41915661 196.95071004 139.72636414 196.8735199 C138.15858138 196.87566832 136.59080018 196.87954981 135.02302551 196.88502502 C130.78340377 196.89468235 126.54420601 196.87946154 122.30463552 196.85911894 C117.86051036 196.84149515 113.41639725 196.84507402 108.97224426 196.84584045 C101.51260828 196.84397017 94.05313548 196.82664134 86.59355164 196.79930115 C77.9752015 196.76783023 69.35702981 196.75730593 60.73862636 196.75877225 C51.55133204 196.76012414 42.36410628 196.74623904 33.17683268 196.72787905 C30.53390523 196.72362136 27.89098888 196.72219738 25.24805832 196.72140121 C21.09310019 196.71938897 16.93829126 196.70715198 12.78338242 196.68706894 C11.26042596 196.68123882 9.73745234 196.67876418 8.21448517 196.67992401 C6.13242112 196.68090944 4.05077141 196.66955577 1.96876526 196.65510559 C0.80479155 196.6517539 -0.35918217 196.64840221 -1.55842781 196.64494896 C-8.62817577 196.07916829 -13.74061992 193.20170788 -18.77314758 188.38768005 C-24.54735002 180.52857913 -24.4833962 172.1494424 -24.4042511 162.81541443 C-24.40939835 161.26367375 -24.41668568 159.71193894 -24.42593384 158.16021729 C-24.44435379 153.97203216 -24.43156937 149.78448857 -24.41184354 145.59633064 C-24.39537745 141.19811975 -24.40428096 136.79994696 -24.40936279 132.40171814 C-24.4138749 125.01786635 -24.39806888 117.63426861 -24.37007141 110.25047302 C-24.33802348 101.73317125 -24.33803814 93.21632749 -24.35528618 84.69899321 C-24.37119079 76.48060627 -24.36439247 68.26238606 -24.34734917 60.04400635 C-24.34050521 56.55778523 -24.34148367 53.07169883 -24.34889412 49.58547974 C-24.35659729 45.4746692 -24.3443006 41.36437524 -24.31704521 37.25365257 C-24.31020231 35.75173156 -24.31001908 34.24976193 -24.31726074 32.74784279 C-24.39506997 14.49713089 -24.39506997 14.49713089 -18.05257511 7.48561859 C-12.72495307 2.54116738 -7.32445517 0.01521104 0 0 Z " fill="#FEFEFE" transform="translate(167.7731475830078,151.61231994628906)"/>
<path d="M0 0 C3.73323926 1.24441309 4.59860164 2.72687968 7 5.8125 C10.96678886 10.80529521 15.14084057 15.50370735 19.54492188 20.11450195 C23 23.7889207 23 23.7889207 23 26 C21.7421875 27.3046875 21.7421875 27.3046875 19.875 28.875 C19.14667969 29.49503906 18.41835938 30.11507812 17.66796875 30.75390625 C16.78753906 31.49511719 15.90710938 32.23632812 15 33 C12.72557079 34.93330007 10.45612912 36.87239913 8.1875 38.8125 C7.58236572 39.32901123 6.97723145 39.84552246 6.35375977 40.37768555 C2.61116537 43.58312754 -1.06016775 46.85118581 -4.6875 50.1875 C-8.14015696 53.35830742 -11.65530966 56.38035031 -15.3125 59.3125 C-20.36836567 63.38748445 -25.08187223 67.75231994 -29.80566406 72.20019531 C-34.11845414 76.23915745 -38.59820511 79.98932577 -43.2109375 83.68359375 C-47.63734163 87.35986497 -51.80801112 91.30426372 -56.015625 95.2265625 C-60.63353761 99.53105514 -65.40761607 103.64312405 -70.2109375 107.73828125 C-71.41165191 108.762794 -72.61216729 109.78754006 -73.8125 110.8125 C-74.41070557 111.32329102 -75.00891113 111.83408203 -75.62524414 112.36035156 C-81.18817895 117.12793765 -86.61500705 122.03261875 -92 127 C-95.9684025 125.43668992 -98.41568551 122.67877299 -101.1875 119.5625 C-101.67162354 119.02681396 -102.15574707 118.49112793 -102.65454102 117.93920898 C-106.45678742 113.69720877 -110.04165193 109.29665954 -113.61328125 104.859375 C-117.32164854 100.41661746 -121.28156198 96.21625026 -125.2265625 91.984375 C-128.57138295 88.39601051 -131.80606062 84.7230364 -135 81 C-135.48065918 80.44038574 -135.96131836 79.88077148 -136.45654297 79.30419922 C-139.97551062 75.20662702 -143.48920448 71.10457539 -147 67 C-145.39518979 62.74420582 -142.17845789 60.1410923 -138.875 57.1875 C-138.29403564 56.65995117 -137.71307129 56.13240234 -137.11450195 55.58886719 C-132.78996733 51.67307762 -128.42765337 47.79895335 -124 44 C-120.0316431 45.56329211 -117.5842197 48.32115107 -114.8125 51.4375 C-114.33055176 51.97101074 -113.84860352 52.50452148 -113.35205078 53.05419922 C-109.49625015 57.35749139 -105.83774269 61.80781333 -102.21484375 66.30859375 C-98.62439194 70.67159427 -94.81940259 74.83748323 -91 79 C-83.93500469 74.01294449 -77.76751229 68.25025706 -71.46435547 62.35986328 C-67.35961069 58.54802127 -63.0896621 54.92629806 -58.82421875 51.296875 C-57.63254314 50.28156606 -56.4411459 49.26593033 -55.25 48.25 C-54.64639648 47.73526123 -54.04279297 47.22052246 -53.42089844 46.69018555 C-49.47534169 43.30910646 -45.61889068 39.84905793 -41.8125 36.3125 C-38.18716792 32.94416553 -34.48767607 29.7207798 -30.625 26.625 C-26.23180907 23.09272257 -22.10187097 19.36006126 -18 15.5 C-13.67816776 11.44965004 -9.33048716 7.45663508 -4.8125 3.625 C-3.52279297 2.53058594 -3.52279297 2.53058594 -2.20703125 1.4140625 C-1.47871094 0.94742188 -0.75039063 0.48078125 0 0 Z " fill="#FDFEFE" transform="translate(333,180)"/>
</svg>
